<svg width="341" height="56" viewBox="0 0 341 56" fill="none" xmlns="http://www.w3.org/2000/svg">
<path d="M4.02344 39.9531H25.0879V43H0.390625V0.34375H4.02344V39.9531ZM29.2773 26.6816C29.2773 23.6348 29.8633 20.8906 31.0352 18.4492C32.2266 16.0078 33.8965 14.1133 36.0449 12.7656C38.2129 11.3984 40.6641 10.7148 43.3984 10.7148C47.6172 10.7148 51.0352 12.1992 53.6523 15.168C56.2695 18.1172 57.5781 22.0332 57.5781 26.916V27.6484C57.5781 30.7148 56.9824 33.4785 55.791 35.9395C54.6191 38.3809 52.959 40.2656 50.8105 41.5938C48.6621 42.9219 46.2109 43.5859 43.457 43.5859C39.2578 43.5859 35.8398 42.1113 33.2031 39.1621C30.5859 36.1934 29.2773 32.2676 29.2773 27.3848V26.6816ZM32.793 27.6484C32.793 31.4375 33.7695 34.5527 35.7227 36.9941C37.6953 39.416 40.2734 40.627 43.457 40.627C46.6211 40.627 49.1797 39.416 51.1328 36.9941C53.1055 34.5527 54.0918 31.3398 54.0918 27.3555V26.6816C54.0918 24.2598 53.6426 22.043 52.7441 20.0312C51.8457 18.0195 50.5859 16.4668 48.9648 15.373C47.3438 14.2598 45.4883 13.7031 43.3984 13.7031C40.2734 13.7031 37.7246 14.9336 35.752 17.3945C33.7793 19.8359 32.793 23.0391 32.793 27.0039V27.6484ZM79.4922 14.2891C78.75 14.1523 77.959 14.084 77.1191 14.084C74.9316 14.084 73.0762 14.6992 71.5527 15.9297C70.0488 17.1406 68.9746 18.9082 68.3301 21.2324V43H64.8438V11.3008H68.2715L68.3301 16.3398C70.1855 12.5898 73.1641 10.7148 77.2656 10.7148C78.2422 10.7148 79.0137 10.8418 79.5801 11.0957L79.4922 14.2891ZM96.748 43.5859C94.0527 43.5859 91.6113 42.9219 89.4238 41.5938C87.2559 40.2656 85.5664 38.4199 84.3555 36.0566C83.1445 33.6738 82.5391 31.0078 82.5391 28.0586V26.7988C82.5391 23.752 83.125 21.0078 84.2969 18.5664C85.4883 16.125 87.1387 14.2109 89.248 12.8242C91.3574 11.418 93.6426 10.7148 96.1035 10.7148C99.9512 10.7148 102.998 12.0332 105.244 14.6699C107.51 17.2871 108.643 20.8711 108.643 25.4219V27.3848H86.0254V28.0586C86.0254 31.6523 87.0508 34.6504 89.1016 37.0527C91.1719 39.4355 93.7695 40.627 96.8945 40.627C98.7695 40.627 100.42 40.2852 101.846 39.6016C103.291 38.918 104.6 37.8242 105.771 36.3203L107.969 37.9902C105.391 41.7207 101.65 43.5859 96.748 43.5859ZM96.1035 13.7031C93.4668 13.7031 91.2402 14.6699 89.4238 16.6035C87.627 18.5371 86.5332 21.1348 86.1426 24.3965H105.156V24.0156C105.059 20.9688 104.189 18.4883 102.549 16.5742C100.908 14.6602 98.7598 13.7031 96.1035 13.7031ZM118.662 11.3008L118.779 16.457C119.951 14.543 121.416 13.1074 123.174 12.1504C124.932 11.1934 126.885 10.7148 129.033 10.7148C134.033 10.7148 137.207 12.7656 138.555 16.8672C139.688 14.8945 141.201 13.3809 143.096 12.3262C144.99 11.252 147.08 10.7148 149.365 10.7148C156.162 10.7148 159.629 14.4258 159.766 21.8477V43H156.25V22.1113C156.23 19.2793 155.615 17.1797 154.404 15.8125C153.213 14.4453 151.26 13.7617 148.545 13.7617C146.025 13.8008 143.896 14.6211 142.158 16.2227C140.42 17.8047 139.453 19.7383 139.258 22.0234V43H135.742V21.8477C135.723 19.1328 135.078 17.1113 133.809 15.7832C132.559 14.4355 130.625 13.7617 128.008 13.7617C125.801 13.7617 123.906 14.3965 122.324 15.666C120.742 16.916 119.57 18.7812 118.809 21.2617V43H115.293V11.3008H118.662ZM188.477 43H184.873V0.34375H188.477V43ZM224.746 27.4727C224.746 32.4141 223.652 36.3398 221.465 39.25C219.277 42.1406 216.348 43.5859 212.676 43.5859C208.34 43.5859 205.02 42.0625 202.715 39.0156V55.1875H199.229V11.3008H202.48L202.656 15.7832C204.941 12.4043 208.252 10.7148 212.588 10.7148C216.377 10.7148 219.346 12.1504 221.494 15.0215C223.662 17.8926 224.746 21.877 224.746 26.9746V27.4727ZM221.23 26.8574C221.23 22.8145 220.4 19.6211 218.74 17.2773C217.08 14.9336 214.766 13.7617 211.797 13.7617C209.648 13.7617 207.803 14.2793 206.26 15.3145C204.717 16.3496 203.535 17.8535 202.715 19.8262V35.0312C203.555 36.8477 204.756 38.2344 206.318 39.1914C207.881 40.1484 209.727 40.627 211.855 40.627C214.805 40.627 217.1 39.4551 218.74 37.1113C220.4 34.748 221.23 31.3301 221.23 26.8574ZM251.523 34.9434C251.523 33.2051 250.82 31.8086 249.414 30.7539C248.027 29.6992 245.928 28.8789 243.115 28.293C240.303 27.6875 238.115 27.0039 236.553 26.2422C235.01 25.4609 233.857 24.5137 233.096 23.4004C232.354 22.2871 231.982 20.9395 231.982 19.3574C231.982 16.8574 233.027 14.7969 235.117 13.1758C237.207 11.5352 239.883 10.7148 243.145 10.7148C246.68 10.7148 249.512 11.5938 251.641 13.3516C253.789 15.0898 254.863 17.3652 254.863 20.1777H251.348C251.348 18.3223 250.566 16.7793 249.004 15.5488C247.461 14.3184 245.508 13.7031 243.145 13.7031C240.84 13.7031 238.984 14.2207 237.578 15.2559C236.191 16.2715 235.498 17.5996 235.498 19.2402C235.498 20.8223 236.074 22.0527 237.227 22.9316C238.398 23.791 240.518 24.582 243.584 25.3047C246.67 26.0273 248.975 26.7988 250.498 27.6191C252.041 28.4395 253.184 29.4258 253.926 30.5781C254.668 31.7305 255.039 33.127 255.039 34.7676C255.039 37.4434 253.955 39.582 251.787 41.1836C249.639 42.7852 246.826 43.5859 243.35 43.5859C239.658 43.5859 236.66 42.6973 234.355 40.9199C232.07 39.123 230.928 36.8574 230.928 34.123H234.443C234.58 36.1738 235.439 37.7754 237.021 38.9277C238.623 40.0605 240.732 40.627 243.35 40.627C245.791 40.627 247.764 40.0898 249.268 39.0156C250.771 37.9414 251.523 36.584 251.523 34.9434ZM283.34 38.9863C281.23 42.0527 277.861 43.5859 273.232 43.5859C269.854 43.5859 267.285 42.6094 265.527 40.6562C263.77 38.6836 262.871 35.7734 262.832 31.9258V11.3008H266.318V31.4863C266.318 37.5215 268.76 40.5391 273.643 40.5391C278.721 40.5391 281.934 38.4395 283.281 34.2402V11.3008H286.797V43H283.398L283.34 38.9863ZM299.131 11.3008L299.248 16.457C300.42 14.543 301.885 13.1074 303.643 12.1504C305.4 11.1934 307.354 10.7148 309.502 10.7148C314.502 10.7148 317.676 12.7656 319.023 16.8672C320.156 14.8945 321.67 13.3809 323.564 12.3262C325.459 11.252 327.549 10.7148 329.834 10.7148C336.631 10.7148 340.098 14.4258 340.234 21.8477V43H336.719V22.1113C336.699 19.2793 336.084 17.1797 334.873 15.8125C333.682 14.4453 331.729 13.7617 329.014 13.7617C326.494 13.8008 324.365 14.6211 322.627 16.2227C320.889 17.8047 319.922 19.7383 319.727 22.0234V43H316.211V21.8477C316.191 19.1328 315.547 17.1113 314.277 15.7832C313.027 14.4355 311.094 13.7617 308.477 13.7617C306.27 13.7617 304.375 14.3965 302.793 15.666C301.211 16.916 300.039 18.7812 299.277 21.2617V43H295.762V11.3008H299.131Z" fill="black"/>
</svg>
